HIERARCHY
ROOT joint_Root
{
	OFFSET 0.0 0.0 0.0
	CHANNELS 6 Xposition Yposition Zposition Zrotation Xrotation Yrotation 
	JOINT Hips
	{
		OFFSET -17.1583 93.1646 452.98
		CHANNELS 6 Xposition Yposition Zposition Zrotation Xrotation Yrotation 
		JOINT Spine
		{
			OFFSET 15.7357 0.0 0.0
			CHANNELS 6 Xposition Yposition Zposition Zrotation Xrotation Yrotation 
			JOINT Chest
			{
				OFFSET 8.98455 -0.406207 0.0
				CHANNELS 6 Xposition Yposition Zposition Zrotation Xrotation Yrotation 
				JOINT Neck
				{
					OFFSET 16.3773 0.0 0.0
					CHANNELS 6 Xposition Yposition Zposition Zrotation Xrotation Yrotation 
					JOINT Head
					{
						OFFSET 6.45672 0.0 0.0
						CHANNELS 6 Xposition Yposition Zposition Zrotation Xrotation Yrotation 
						End Site
						{
							OFFSET 0.0 0.0 0.0
						}
					}
				}
				JOINT Shoulder_L
				{
					OFFSET 12.9942 -0.242716 4.98039
					CHANNELS 6 Xposition Yposition Zposition Zrotation Xrotation Yrotation 
					JOINT UpperArm_L
					{
						OFFSET 5.34809 0.0 0.0
						CHANNELS 6 Xposition Yposition Zposition Zrotation Xrotation Yrotation 
						JOINT LowerArm_L
						{
							OFFSET 24.3286 1.87007e-05 0.0
							CHANNELS 6 Xposition Yposition Zposition Zrotation Xrotation Yrotation 
							JOINT Hand_L
							{
								OFFSET 22.2916 0.0 0.0
								CHANNELS 6 Xposition Yposition Zposition Zrotation Xrotation Yrotation 
								End Site
								{
									OFFSET 0.0 0.0 0.0
								}
							}
						}
					}
				}
				JOINT Shoulder_R
				{
					OFFSET 12.9945 -0.242716 -4.98039
					CHANNELS 6 Xposition Yposition Zposition Zrotation Xrotation Yrotation 
					JOINT UpperArm_R
					{
						OFFSET -5.34813 0.0 0.0
						CHANNELS 6 Xposition Yposition Zposition Zrotation Xrotation Yrotation 
						JOINT LowerArm_R
						{
							OFFSET -24.3289 0.000322201 0.0
							CHANNELS 6 Xposition Yposition Zposition Zrotation Xrotation Yrotation 
							JOINT Hand_R
							{
								OFFSET -22.2915 -0.000108084 0.0
								CHANNELS 6 Xposition Yposition Zposition Zrotation Xrotation Yrotation 
								End Site
								{
									OFFSET 0.0 0.0 0.0
								}
							}
						}
					}
				}
			}
		}
		JOINT UpperLeg_L
		{
			OFFSET -2.19248 -6.46944 0.0
			CHANNELS 6 Xposition Yposition Zposition Zrotation Xrotation Yrotation 
			JOINT LowerLeg_L
			{
				OFFSET 39.0811 0.0 -1.23785e-05
				CHANNELS 6 Xposition Yposition Zposition Zrotation Xrotation Yrotation 
				JOINT Foot_L
				{
					OFFSET 40.9854 0.0 -1.26872e-05
					CHANNELS 6 Xposition Yposition Zposition Zrotation Xrotation Yrotation 
					JOINT Toes_L
					{
						OFFSET 11.7543 0.0 0.0
						CHANNELS 6 Xposition Yposition Zposition Zrotation Xrotation Yrotation 
						End Site
						{
							OFFSET 0.0 0.0 0.0
						}
					}
				}
			}
		}
		JOINT UpperLeg_R
		{
			OFFSET -2.19251 6.46944 0.0
			CHANNELS 6 Xposition Yposition Zposition Zrotation Xrotation Yrotation 
			JOINT LowerLeg_R
			{
				OFFSET -39.0811 -0.00228153 -0.0401928
				CHANNELS 6 Xposition Yposition Zposition Zrotation Xrotation Yrotation 
				JOINT Foot_R
				{
					OFFSET -40.9854 0.0 0.0
					CHANNELS 6 Xposition Yposition Zposition Zrotation Xrotation Yrotation 
					JOINT Toes_R
					{
						OFFSET -11.7543 0.0 0.0
						CHANNELS 6 Xposition Yposition Zposition Zrotation Xrotation Yrotation 
						End Site
						{
							OFFSET 0.0 0.0 0.0
						}
					}
				}
			}
		}
	}
}
MOTION
Frames:	7
Frame Time:	0.0333333
0.000000 0.000000 0.000000 0.000000 0.000000 -0.000000 -2.978860 91.950300 -0.771507 84.105100 0.746750 3.886550 15.735700 0.000005 -0.000001 68.670500 87.245200 -65.702800 8.984550 -0.406207 -0.000000 -2.568980 -2.270760 5.885170 16.377300 -0.000001 -0.000001 11.234200 3.936230 4.736060 6.456720 -0.000001 -0.000000 5.755660 7.333250 6.004140 12.994200 -0.242716 4.980390 -92.385400 6.926520 -70.943800 5.348090 -0.000007 -0.000001 -67.751400 -10.344000 1.408260 24.328600 0.000019 0.000005 45.408100 -39.419200 -122.047000 22.291600 -0.000001 0.000005 59.936400 4.833420 10.683200 12.994500 -0.242716 -4.980390 87.990000 5.801200 -70.852500 -5.348130 -0.000001 -0.000004 -63.924500 1.914310 -4.213580 -24.328900 0.000322 -0.000009 19.568900 -17.591200 -130.371000 -22.291500 -0.000108 -0.000004 59.127000 5.611200 -12.042400 -2.192480 -6.469440 -0.000000 -172.248000 0.988494 -4.660980 39.081100 -0.000007 -0.000012 0.395532 -0.726523 28.565700 40.985400 -0.000006 -0.000013 0.941029 6.911380 -75.959300 11.754300 -0.000000 0.000003 0.000543 0.157917 -10.172200 -2.192510 6.469440 -0.000001 -170.421000 6.566470 -176.808000 -39.081100 -0.002282 -0.040193 0.127335 -0.448244 15.464100 -40.985400 0.000008 0.000006 4.939280 0.514733 -71.149800 -11.754300 -0.000006 -0.000006 -0.010661 0.276179 -5.351610
0.000000 0.000000 0.000000 0.000000 0.000000 -0.000000 -2.958400 91.947400 -0.771557 84.129000 0.657842 3.907940 15.735700 0.000005 -0.000001 68.592500 87.237900 -65.618400 8.984550 -0.406207 -0.000000 -2.557620 -2.283350 5.898010 16.377300 -0.000001 -0.000001 11.314700 3.990530 4.670580 6.456720 -0.000001 -0.000000 5.826340 7.382770 5.814500 12.994200 -0.242716 4.980390 -92.388100 6.927300 -70.926000 5.348090 -0.000007 -0.000001 -67.340600 -9.376320 1.592700 24.328600 0.000019 0.000005 52.858700 -43.736600 -117.639000 22.291600 -0.000001 0.000005 62.562500 5.012450 7.054160 12.994500 -0.242716 -4.980390 87.968100 5.854530 -70.821600 -5.348130 -0.000001 -0.000004 -62.974800 3.981680 -4.149900 -24.328900 0.000322 -0.000009 23.445600 -21.566000 -130.283000 -22.291500 -0.000108 -0.000004 58.557400 5.676300 -18.555700 -2.192480 -6.469440 -0.000000 -172.285000 0.921366 -4.611440 39.081100 -0.000007 -0.000012 0.396152 -0.727748 28.562800 40.985400 -0.000006 -0.000013 0.951463 6.887610 -75.986500 11.754300 -0.000000 0.000003 0.000485 0.159013 -10.127700 -2.192510 6.469440 -0.000001 -170.484000 6.652420 -176.807000 -39.081100 -0.002282 -0.040193 0.128611 -0.450444 15.543000 -40.985400 0.000008 0.000006 4.950310 0.674361 -71.229200 -11.754300 -0.000006 -0.000006 -0.010692 0.276405 -5.342340
0.000000 0.000000 0.000000 0.000000 0.000000 -0.000000 -2.944160 91.945000 -0.791986 84.132800 0.589315 3.929220 15.735700 0.000005 -0.000001 68.333300 87.230200 -65.353300 8.984550 -0.406207 -0.000000 -2.551540 -2.312680 5.909230 16.377300 -0.000001 -0.000001 11.520300 4.047550 4.614290 6.456720 -0.000001 -0.000000 5.952190 7.457430 5.711530 12.994200 -0.242716 4.980390 -92.390200 6.926420 -70.908200 5.348090 -0.000007 -0.000001 -67.453100 -9.828510 1.252850 24.328600 0.000019 0.000005 56.441300 -45.481000 -115.314000 22.291600 -0.000001 0.000005 63.812500 5.036580 6.531080 12.994500 -0.242716 -4.980390 87.958400 5.885120 -70.829300 -5.348130 -0.000001 -0.000004 -62.387700 5.522920 -4.486320 -24.328900 0.000322 -0.000009 26.576300 -24.627600 -129.795000 -22.291500 -0.000108 -0.000004 58.677800 5.680660 -22.377600 -2.192480 -6.469440 -0.000000 -172.296000 0.897238 -4.610060 39.081100 -0.000007 -0.000012 0.395081 -0.725086 28.585800 40.985400 -0.000006 -0.000013 0.948107 6.849040 -75.963200 11.754300 -0.000000 0.000003 0.000493 0.158861 -10.133900 -2.192510 6.469440 -0.000001 -170.486000 6.500270 -176.839000 -39.081100 -0.002282 -0.040193 0.130047 -0.452922 15.630600 -40.985400 0.000008 0.000006 4.940310 0.655866 -71.252700 -11.754300 -0.000006 -0.000006 -0.010934 0.278154 -5.270750
0.000000 0.000000 0.000000 0.000000 0.000000 -0.000000 -2.954400 91.934500 -0.789360 84.125700 0.529443 4.107560 15.735700 0.000005 -0.000001 68.724400 87.202900 -65.748400 8.984550 -0.406207 -0.000000 -2.487320 -2.295300 5.902700 16.377300 -0.000001 -0.000001 11.787900 4.115110 4.582820 6.456720 -0.000001 -0.000000 6.076830 7.472070 5.745570 12.994200 -0.242716 4.980390 -92.362100 6.857970 -70.942900 5.348090 -0.000007 -0.000001 -68.158400 -11.544300 0.556887 24.328600 0.000019 0.000005 53.309300 -43.599100 -117.196000 22.291600 -0.000001 0.000005 62.883800 4.984690 7.643430 12.994500 -0.242716 -4.980390 87.914200 6.022860 -70.857800 -5.348130 -0.000001 -0.000004 -62.214600 5.776730 -4.866000 -24.328900 0.000322 -0.000009 26.620600 -24.609700 -129.721000 -22.291500 -0.000108 -0.000004 59.362700 5.678300 -23.197100 -2.192480 -6.469440 -0.000000 -172.281000 0.854291 -4.432970 39.081100 -0.000007 -0.000012 0.394568 -0.722653 28.635500 40.985400 -0.000006 -0.000013 0.944025 6.844220 -76.021500 11.754300 -0.000000 0.000003 0.000466 0.159368 -10.113300 -2.192510 6.469440 -0.000001 -170.459000 6.351180 -176.693000 -39.081100 -0.002282 -0.040193 0.131129 -0.454356 15.710300 -40.985400 0.000008 0.000006 4.924180 0.488483 -71.295400 -11.754300 -0.000006 -0.000006 -0.011192 0.280006 -5.194960
0.000000 0.000000 0.000000 0.000000 0.000000 -0.000000 -2.965860 91.924000 -0.810449 84.108700 0.529239 4.216900 15.735700 0.000005 -0.000001 68.681800 87.203500 -65.693400 8.984550 -0.406207 -0.000000 -2.489530 -2.299900 5.927260 16.377300 -0.000001 -0.000001 12.032900 4.136300 4.598550 6.456720 -0.000001 -0.000000 6.300480 7.482300 5.691210 12.994200 -0.242716 4.980390 -92.324000 6.752160 -70.956900 5.348090 -0.000007 -0.000001 -69.352000 -14.134800 -0.341094 24.328600 0.000019 0.000005 47.334500 -39.298700 -120.274000 22.291600 -0.000001 0.000005 60.441100 4.851530 10.332400 12.994500 -0.242716 -4.980390 87.919700 6.014850 -70.881500 -5.348130 -0.000001 -0.000004 -62.750300 4.782200 -5.263550 -24.328900 0.000322 -0.000009 23.498500 -21.363700 -129.958000 -22.291500 -0.000108 -0.000004 59.666900 5.681980 -21.331300 -2.192480 -6.469440 -0.000000 -172.259000 0.911032 -4.386540 39.081100 -0.000007 -0.000012 0.395279 -0.721544 28.716000 40.985400 -0.000006 -0.000013 0.927632 6.818680 -76.025100 11.754300 -0.000000 0.000003 0.000398 0.160638 -10.061800 -2.192510 6.469440 -0.000001 -170.442000 6.368820 -176.651000 -39.081100 -0.002282 -0.040193 0.132718 -0.457142 15.803800 -40.985400 0.000008 0.000006 4.926350 0.451136 -71.287900 -11.754300 -0.000006 -0.000006 -0.011003 0.278652 -5.250370
0.000000 0.000000 0.000000 0.000000 0.000000 -0.000000 -2.976540 91.914100 -0.827914 84.099800 0.569367 4.357090 15.735700 0.000005 -0.000001 68.629200 87.184800 -65.639300 8.984550 -0.406207 -0.000000 -2.456120 -2.317550 5.930610 16.377300 -0.000001 -0.000001 12.173300 4.165210 4.590000 6.456720 -0.000001 -0.000000 6.459320 7.556400 5.677330 12.994200 -0.242716 4.980390 -92.278200 6.632080 -70.993600 5.348090 -0.000007 -0.000001 -70.602400 -16.723800 -1.109850 24.328600 0.000019 0.000005 41.327400 -34.226500 -122.604000 22.291600 -0.000001 0.000005 56.822200 4.654040 13.975300 12.994500 -0.242716 -4.980390 87.937400 5.970010 -70.900800 -5.348130 -0.000001 -0.000004 -63.782100 3.015690 -5.573870 -24.328900 0.000322 -0.000009 19.469100 -17.205500 -129.920000 -22.291500 -0.000108 -0.000004 58.819100 5.663990 -16.541300 -2.192480 -6.469440 -0.000000 -172.257000 0.976287 -4.288350 39.081100 -0.000007 -0.000012 0.399683 -0.727602 28.781700 40.985400 -0.000006 -0.000013 0.926798 6.813530 -76.070300 11.754300 -0.000000 0.000003 0.000517 0.158412 -10.152100 -2.192510 6.469440 -0.000001 -170.443000 6.436900 -176.570000 -39.081100 -0.002282 -0.040193 0.134133 -0.459486 15.890500 -40.985400 0.000008 0.000006 4.939020 0.466037 -71.311500 -11.754300 -0.000006 -0.000006 -0.010973 0.278436 -5.259210
0.000000 0.000000 0.000000 0.000000 0.000000 -0.000000 -2.998780 91.901600 -0.855084 84.069600 0.671985 4.413640 15.735700 0.000005 -0.000001 68.312100 87.178700 -65.316600 8.984550 -0.406207 -0.000000 -2.455220 -2.351520 5.941120 16.377300 -0.000001 -0.000001 12.179900 4.198400 4.534410 6.456720 -0.000001 -0.000000 6.504400 7.593370 5.741170 12.994200 -0.242716 4.980390 -92.264200 6.603330 -71.025800 5.348090 -0.000007 -0.000001 -71.576400 -18.815300 -1.736660 24.328600 0.000019 0.000005 35.166500 -29.253100 -124.745000 22.291600 -0.000001 0.000005 53.259600 4.412100 18.030100 12.994500 -0.242716 -4.980390 87.977600 5.852670 -70.899300 -5.348130 -0.000001 -0.000004 -64.832000 1.307900 -5.814710 -24.328900 0.000322 -0.000009 14.780400 -12.860000 -130.149000 -22.291500 -0.000108 -0.000004 57.827200 5.558710 -9.124480 -2.192480 -6.469440 -0.000000 -172.201000 1.003950 -4.333360 39.081100 -0.000007 -0.000012 0.401437 -0.727687 28.884800 40.985400 -0.000006 -0.000013 0.931180 6.897650 -76.046500 11.754300 -0.000000 0.000003 0.000493 0.158875 -10.133300 -2.192510 6.469440 -0.000001 -170.388000 6.454770 -176.588000 -39.081100 -0.002282 -0.040193 0.135538 -0.461999 15.969700 -40.985400 0.000008 0.000006 4.951800 0.395070 -71.293400 -11.754300 -0.000006 -0.000006 -0.010923 0.278075 -5.274000
